<svg xmlns="http://www.w3.org/2000/svg" xmlns:xlink="http://www.w3.org/1999/xlink" version="1.1" x="0px" y="0px" viewBox="0 0 100 125" enable-background="new 0 0 100 100" xml:space="preserve"><g><path d="M50,93.854c-21.075,0-39.168-15.009-43.022-35.686l-0.173-0.931h28.992l0.223,0.412c2.775,5.135,8.133,8.324,13.982,8.324   c5.848,0,11.204-3.189,13.98-8.324l0.224-0.412h28.989l-0.173,0.931C89.168,78.845,71.074,93.854,50,93.854z M8.709,58.811   C12.785,78.262,30,92.28,50,92.28s37.214-14.019,41.291-33.47H65.136c-3.111,5.401-8.865,8.736-15.134,8.736   c-6.27,0-12.025-3.335-15.137-8.736H8.709z"/></g><g><path d="M93.41,44.485H63.192c-2.177-5.134-7.263-8.736-13.19-8.736c-5.929,0-11.016,3.602-13.194,8.736H6.589   c-0.233,1.833-0.367,3.694-0.367,5.59c0,1.895,0.134,3.758,0.367,5.589h30.219c2.179,5.134,7.265,8.736,13.194,8.736   c5.928,0,11.014-3.603,13.192-8.736H93.41c0.234-1.831,0.368-3.694,0.368-5.589C93.778,48.18,93.645,46.318,93.41,44.485z    M50,60.838c-5.944,0-10.764-4.818-10.764-10.763c0-5.945,4.819-10.764,10.764-10.764c5.945,0,10.763,4.819,10.763,10.764   C60.763,56.02,55.945,60.838,50,60.838z"/></g><g><path d="M50,42.533c-4.166,0-7.542,3.376-7.542,7.542c0,4.166,3.376,7.541,7.542,7.541c4.165,0,7.542-3.375,7.542-7.541   C57.542,45.91,54.165,42.533,50,42.533z M55.244,50.798c-0.004,0.236-0.028,0.491-0.091,0.755   c-0.044,0.271-0.154,0.537-0.255,0.819c-0.13,0.268-0.257,0.555-0.445,0.809c-0.165,0.271-0.389,0.504-0.603,0.744   c-0.24,0.214-0.472,0.438-0.743,0.604c-0.253,0.19-0.543,0.315-0.809,0.447c-0.283,0.1-0.549,0.21-0.82,0.254   c-0.263,0.063-0.519,0.088-0.755,0.09c-0.23,0.022-0.447-0.006-0.635-0.029c-0.185-0.013-0.345-0.053-0.476-0.095   c-0.26-0.076-0.4-0.137-0.4-0.137s0.145-0.073,0.379-0.176c0.235-0.094,0.558-0.256,0.914-0.44c0.18-0.089,0.363-0.201,0.551-0.32   c0.197-0.101,0.377-0.254,0.576-0.373c0.379-0.282,0.756-0.594,1.105-0.937c0.166-0.182,0.342-0.351,0.493-0.542   c0.165-0.179,0.294-0.38,0.445-0.562c0.119-0.201,0.272-0.382,0.374-0.576c0.118-0.189,0.23-0.372,0.32-0.554   c0.184-0.359,0.343-0.651,0.438-0.91c0.103-0.243,0.177-0.381,0.177-0.381s0.058,0.145,0.135,0.396   c0.041,0.124,0.082,0.277,0.095,0.471C55.239,50.345,55.266,50.569,55.244,50.798z"/></g><g><path d="M50,6.297c-21.737,0-39.766,15.847-43.186,36.615h28.99c2.691-5.34,8.154-8.735,14.197-8.735   c6.04,0,11.503,3.396,14.195,8.735h28.987C89.765,22.144,71.737,6.297,50,6.297z M81.245,32.413   c-0.168-0.241-0.348-0.498-0.536-0.77c-0.197-0.264-0.42-0.519-0.643-0.797c-0.449-0.548-0.933-1.136-1.411-1.771   c-0.123-0.157-0.246-0.317-0.37-0.479c-0.143-0.151-0.286-0.304-0.432-0.458c-0.294-0.306-0.577-0.63-0.872-0.955   c-0.595-0.644-1.148-1.358-1.839-1.967c-0.665-0.632-1.32-1.291-1.978-1.948c-0.71-0.601-1.427-1.193-2.114-1.8   c-0.67-0.631-1.422-1.13-2.119-1.661c-0.348-0.266-0.697-0.518-1.027-0.785c-0.328-0.271-0.66-0.52-1.008-0.724   c-0.683-0.426-1.316-0.858-1.903-1.261c-0.297-0.199-0.58-0.39-0.85-0.572c-0.281-0.163-0.549-0.317-0.799-0.462   c-0.504-0.285-0.937-0.559-1.3-0.779c-0.72-0.444-1.129-0.727-1.129-0.727s0.477,0.088,1.305,0.292   c0.413,0.103,0.919,0.224,1.492,0.39c0.289,0.081,0.597,0.167,0.92,0.257c0.318,0.104,0.634,0.257,0.974,0.394   c0.679,0.281,1.414,0.59,2.182,0.948c0.394,0.163,0.773,0.37,1.154,0.6c0.386,0.217,0.77,0.461,1.167,0.698   c0.784,0.487,1.625,0.957,2.36,1.595c0.765,0.6,1.528,1.228,2.289,1.857c0.691,0.707,1.385,1.411,2.049,2.121   c0.698,0.678,1.235,1.479,1.791,2.217c0.271,0.373,0.546,0.735,0.797,1.101c0.126,0.182,0.253,0.361,0.377,0.539   c0.108,0.191,0.217,0.38,0.322,0.565c0.429,0.741,0.803,1.455,1.144,2.107c0.164,0.329,0.351,0.632,0.475,0.939   c0.115,0.31,0.226,0.603,0.329,0.879c0.21,0.549,0.371,1.039,0.511,1.44c0.274,0.804,0.405,1.276,0.405,1.276   s-0.313-0.377-0.819-1.06C81.889,33.311,81.576,32.899,81.245,32.413z"/></g><text x="0" y="115" fill="#000000" font-size="5px" font-weight="bold" font-family="'Helvetica Neue', Helvetica, Arial-Unicode, Arial, Sans-serif">Created by Bakunetsu Kaito</text><text x="0" y="120" fill="#000000" font-size="5px" font-weight="bold" font-family="'Helvetica Neue', Helvetica, Arial-Unicode, Arial, Sans-serif">from the Noun Project</text></svg>